<?xml version="1.0" standalone="no"?>
<!DOCTYPE svg PUBLIC "-//W3C//DTD SVG 20010904//EN"
 "http://www.w3.org/TR/2001/REC-SVG-20010904/DTD/svg10.dtd">
<svg version="1.0" xmlns="http://www.w3.org/2000/svg"
 width="2048.000000pt" height="2048.000000pt" viewBox="0 0 2048.000000 2048.000000"
 preserveAspectRatio="xMidYMid meet">

<g transform="translate(0.000000,2048.000000) scale(0.100000,-0.100000)"
fill="#000000" stroke="none">
<path d="M16870 20273 c-29 -12 -49 -48 -49 -88 0 -22 -8 -120 -18 -217 l-17
-178 32 -99 c28 -86 39 -105 78 -141 50 -46 101 -72 189 -95 140 -36 260 -5
315 82 42 66 43 156 1 246 -33 72 -56 91 -169 136 -45 18 -85 38 -88 43 -10
15 23 54 60 72 20 9 60 20 89 23 78 8 111 64 71 121 -13 19 -24 22 -78 22 -82
0 -150 -24 -209 -73 -62 -51 -90 -106 -91 -176 -1 -50 1 -55 41 -90 24 -22 77
-52 125 -71 46 -18 93 -43 105 -56 25 -27 37 -74 28 -104 -5 -17 -12 -20 -35
-15 -18 4 -40 0 -59 -10 -28 -14 -34 -14 -68 0 -21 9 -48 25 -60 37 -12 11
-36 23 -54 27 -29 6 -34 13 -56 75 -22 68 -23 71 -9 200 29 263 29 284 1 312
-24 23 -45 28 -75 17z"/>
<path d="M15170 16424 c-80 -7 -236 -17 -345 -23 -148 -7 -220 -15 -275 -31
-178 -50 -265 -69 -357 -80 -213 -25 -289 -47 -453 -133 -63 -33 -155 -81
-204 -106 -107 -55 -209 -149 -227 -211 l-12 -39 -51 21 c-38 16 -81 22 -166
26 l-116 4 -70 -34 c-108 -54 -211 -126 -283 -198 -81 -81 -190 -168 -256
-206 -74 -42 -242 -154 -256 -170 -6 -8 -17 -14 -25 -14 -7 0 -17 -6 -21 -14
-8 -14 -102 -96 -205 -178 -25 -21 -107 -96 -182 -168 -75 -71 -142 -130 -150
-130 -8 0 -16 -4 -18 -8 -3 -10 -125 -109 -223 -182 -76 -58 -119 -78 -280
-130 -71 -23 -186 -66 -255 -96 -159 -67 -395 -136 -578 -168 -125 -22 -184
-26 -486 -32 -340 -7 -344 -7 -373 14 -17 12 -50 24 -74 27 -54 7 -97 19 -213
57 -107 34 -300 74 -408 83 -43 4 -101 13 -130 21 -29 7 -177 30 -328 49 -151
20 -302 42 -335 50 -33 8 -166 22 -295 30 -129 9 -266 20 -305 26 -124 17
-938 21 -1131 4 -128 -10 -212 -12 -335 -5 -258 14 -287 18 -309 40 -11 11
-33 20 -49 20 -16 0 -64 7 -107 16 -59 12 -110 15 -218 11 -238 -10 -478 -26
-531 -36 -140 -26 -212 -47 -335 -96 -778 -308 -743 -299 -1061 -280 l-136 8
-53 -29 c-29 -16 -63 -42 -76 -59 -37 -49 -77 -144 -71 -171 3 -16 0 -24 -7
-21 -101 38 -200 60 -276 60 -210 -1 -370 -84 -439 -226 -121 -256 -146 -570
-75 -962 26 -142 73 -359 97 -449 13 -46 12 -53 -20 -145 -18 -53 -33 -113
-33 -135 0 -80 57 -237 109 -299 11 -12 36 -42 56 -67 49 -59 104 -96 183
-120 71 -22 127 -25 167 -10 15 6 25 7 23 3 -1 -5 -19 -39 -38 -78 -35 -69
-35 -71 -35 -200 0 -136 0 -135 71 -380 24 -84 97 -416 108 -495 8 -54 55
-288 66 -329 12 -45 18 -86 35 -229 16 -132 35 -219 70 -321 14 -41 25 -85 25
-97 0 -28 59 -168 97 -231 16 -26 37 -70 47 -96 21 -56 87 -126 171 -184 33
-22 70 -54 82 -70 31 -43 154 -100 267 -124 l97 -21 101 33 c56 19 116 43 134
55 54 37 135 74 146 67 6 -3 8 -1 5 4 -4 6 0 16 8 23 8 7 15 21 15 31 0 9 14
28 31 40 26 18 39 21 86 16 43 -5 68 -1 112 16 31 12 63 22 71 22 7 0 28 19
45 41 105 142 126 241 81 379 -14 43 -23 82 -20 86 3 5 1 9 -4 9 -15 0 -29 50
-31 108 -3 70 29 171 96 302 30 58 60 125 67 150 32 101 98 285 105 290 4 3
13 21 21 40 7 19 26 51 41 70 106 138 225 347 248 437 19 70 33 191 39 342 l7
145 34 8 c19 5 148 6 295 1 l261 -8 68 -35 c38 -18 82 -46 98 -61 17 -15 31
-27 32 -27 8 6 55 -36 50 -45 -4 -6 -1 -7 6 -3 8 5 55 -24 124 -77 62 -46 146
-109 187 -139 89 -65 360 -328 360 -348 0 -8 7 -28 15 -43 8 -16 33 -79 56
-140 38 -100 42 -124 47 -223 4 -102 2 -118 -28 -220 -30 -100 -33 -123 -37
-286 l-5 -178 35 -73 c19 -41 59 -107 88 -147 30 -41 68 -98 85 -128 l31 -53
-67 -67 c-43 -43 -85 -101 -120 -162 -68 -120 -76 -130 -141 -181 -30 -23
-101 -88 -159 -143 -105 -101 -210 -192 -210 -183 0 3 -13 -7 -28 -21 -15 -15
-72 -70 -127 -122 -93 -89 -188 -169 -535 -448 -80 -64 -180 -149 -223 -189
-42 -40 -142 -124 -221 -188 -178 -142 -377 -325 -393 -362 -7 -16 -12 -22
-13 -15 0 7 -13 12 -30 12 -23 0 -36 -9 -62 -43 -33 -43 -94 -158 -122 -229
-12 -31 -39 -52 -175 -143 -118 -77 -171 -119 -199 -155 -20 -27 -41 -49 -45
-49 -4 -1 -20 -12 -35 -26 -15 -14 -30 -25 -35 -25 -9 0 -8 1 -102 -77 -81
-66 -106 -94 -131 -143 -22 -40 -46 -63 -91 -85 -18 -9 -52 -31 -77 -50 -24
-18 -46 -31 -49 -29 -2 3 -2 -7 1 -21 4 -21 -5 -35 -50 -78 -75 -71 -128 -149
-128 -188 0 -20 -196 -172 -262 -203 -58 -28 -114 -81 -196 -188 -89 -116
-126 -182 -118 -213 3 -12 35 -51 71 -88 53 -54 85 -77 168 -117 56 -27 123
-53 147 -59 25 -5 75 -24 113 -41 37 -17 125 -44 195 -61 139 -34 420 -78 493
-79 158 -1 233 131 234 407 l0 132 65 41 c180 115 218 145 247 192 30 48 95
108 119 108 7 0 14 3 16 8 1 4 35 21 73 38 102 44 187 109 234 179 23 33 41
65 41 71 0 24 87 135 173 219 51 50 131 116 179 148 75 50 92 57 135 57 62 0
77 10 252 165 80 70 185 158 235 195 50 37 125 97 166 134 41 36 122 101 179
143 57 43 147 114 200 158 53 44 143 115 201 157 58 43 110 81 115 86 6 4 33
24 60 45 28 20 55 41 61 46 7 5 56 38 110 72 55 35 132 87 172 117 40 29 77
50 82 47 6 -4 9 -2 8 3 -2 5 63 73 144 150 193 183 196 185 442 190 198 4 273
-5 374 -45 81 -33 215 -121 206 -135 -4 -7 -2 -8 4 -4 10 6 62 -28 230 -152
40 -29 92 -78 115 -109 23 -30 68 -87 100 -126 32 -38 65 -83 73 -98 16 -33
19 -198 3 -269 -33 -153 -50 -275 -42 -294 7 -14 0 -49 -25 -126 -19 -58 -46
-145 -60 -195 -15 -49 -29 -92 -32 -95 -3 -3 -5 -9 -5 -15 0 -5 -13 -64 -28
-130 -16 -66 -33 -142 -39 -170 -6 -27 -23 -102 -38 -165 -76 -315 -82 -346
-83 -430 0 -74 4 -97 36 -180 54 -139 89 -204 169 -312 77 -103 133 -146 217
-168 61 -16 299 12 440 52 86 24 128 30 226 32 99 2 132 7 190 28 39 14 97 35
130 47 53 20 67 21 120 11 53 -10 68 -8 124 10 57 18 86 20 250 18 l186 -2
108 37 c79 28 136 40 215 47 123 12 143 15 232 40 36 10 102 22 148 25 80 6
84 6 102 -18 26 -33 80 -53 174 -66 172 -24 373 -8 752 59 62 11 135 20 164
20 44 0 56 4 81 29 16 16 29 40 29 53 0 25 -41 93 -156 260 -100 146 -196 286
-279 408 -203 300 -236 342 -294 379 -32 21 -60 31 -87 31 -36 0 -118 -25
-139 -43 -5 -4 -77 -53 -160 -108 -82 -56 -156 -112 -165 -126 -10 -16 -40
-34 -87 -52 -101 -40 -145 -49 -297 -65 -74 -8 -147 -21 -164 -30 -36 -18
-137 -36 -212 -36 -76 -1 -129 -14 -217 -56 -75 -36 -79 -36 -227 -42 -99 -3
-160 -9 -178 -18 -39 -20 -147 -44 -153 -34 -3 5 10 40 29 77 27 55 35 84 40
153 4 47 13 112 21 145 9 33 17 73 20 88 2 16 9 43 14 60 6 18 17 55 26 82 9
28 25 95 35 150 17 87 23 102 49 122 19 15 36 43 46 76 10 28 37 98 61 154 24
56 44 104 44 107 0 7 90 251 137 371 77 198 97 245 154 360 74 152 142 313
164 390 10 33 21 70 26 83 14 35 10 164 -5 191 -12 22 -10 26 24 57 37 34 99
65 215 109 99 37 370 161 540 247 88 44 196 93 240 108 88 31 173 64 339 133
81 34 114 43 127 36 27 -14 46 -11 102 15 29 14 59 26 67 28 8 2 17 6 20 10 3
3 131 49 285 101 397 134 499 178 700 300 138 85 215 138 323 226 52 42 133
108 182 146 49 39 126 104 172 145 45 42 115 100 153 129 39 30 93 77 120 106
28 28 97 94 155 146 57 52 141 131 186 176 l83 82 6 -32 c9 -40 72 -231 119
-359 20 -54 63 -209 96 -345 34 -137 86 -349 116 -473 30 -124 60 -238 65
-255 5 -16 25 -93 43 -170 19 -77 38 -150 41 -162 6 -19 4 -23 -14 -23 -11 0
-21 -1 -22 -2 0 -2 -6 -46 -14 -98 -7 -52 -21 -129 -31 -170 -13 -54 -18 -119
-19 -230 0 -103 -5 -162 -13 -177 -6 -12 -12 -38 -12 -57 0 -33 -45 -184 -88
-291 -38 -96 -106 -328 -122 -415 -6 -33 -22 -84 -36 -114 -13 -30 -27 -83
-31 -118 l-6 -64 -68 -60 c-38 -32 -99 -90 -136 -129 -37 -38 -119 -122 -180
-185 -62 -64 -113 -121 -113 -126 0 -6 -9 -19 -21 -30 -30 -27 -59 -88 -59
-124 0 -47 23 -92 66 -127 21 -18 47 -40 58 -49 20 -18 97 -54 306 -144 175
-75 382 -130 493 -130 44 0 96 -5 114 -12 28 -10 44 -9 109 10 89 27 124 50
165 112 58 87 70 154 66 356 -3 98 -8 195 -12 215 -5 27 -1 50 20 98 17 41 31
103 40 175 13 105 24 159 46 232 5 18 12 63 15 100 4 44 19 102 41 159 85 218
193 551 193 597 0 15 6 63 14 105 39 211 46 257 57 367 6 66 8 134 5 150 -5
27 -1 35 34 60 22 17 49 49 61 73 21 44 36 53 45 29 7 -18 93 -74 171 -110 57
-27 61 -30 41 -40 -25 -13 -52 -85 -62 -166 -8 -62 -31 -133 -57 -170 -33 -50
-67 -126 -74 -169 -4 -24 -13 -58 -20 -75 -7 -17 -19 -60 -25 -96 -6 -36 -23
-89 -37 -117 -17 -37 -27 -83 -34 -150 -5 -54 -14 -134 -20 -178 -6 -44 -15
-123 -19 -175 -4 -52 -12 -113 -18 -136 -6 -22 -13 -102 -16 -177 -3 -121 -6
-140 -27 -174 -17 -27 -26 -60 -30 -111 -5 -62 -11 -80 -44 -128 -37 -53 -39
-61 -46 -157 -8 -112 -1 -140 34 -135 32 4 47 44 47 124 0 56 4 77 20 97 38
48 70 130 70 180 0 34 8 62 30 101 26 46 30 63 29 117 -2 103 8 242 20 272 6
16 11 61 11 100 1 40 7 101 15 137 8 36 15 92 15 125 1 92 18 192 41 236 11
22 29 77 39 122 39 166 52 213 77 257 56 104 85 178 99 254 8 45 20 101 27
125 l14 44 66 -65 c57 -57 72 -67 114 -73 56 -8 113 -30 113 -43 0 -6 16 -13
36 -17 20 -3 67 -18 105 -32 61 -22 67 -27 57 -43 -9 -13 -8 -47 2 -131 7 -65
11 -170 8 -244 -4 -125 -6 -133 -40 -201 -59 -119 -68 -172 -68 -420 0 -265
-15 -497 -35 -554 -11 -31 -15 -88 -15 -209 0 -177 -7 -245 -42 -410 l-21
-104 -81 7 c-115 9 -225 36 -426 103 l-175 58 -6 39 c-7 43 -30 66 -65 66 -40
0 -56 -12 -96 -74 -21 -33 -80 -105 -131 -159 -51 -55 -105 -123 -122 -152
-16 -29 -39 -61 -51 -71 -29 -27 -119 -135 -133 -161 -6 -12 -11 -44 -11 -71
0 -38 5 -53 23 -69 53 -49 181 -126 249 -150 40 -15 80 -32 88 -39 18 -15 125
-64 200 -92 62 -24 155 -42 212 -42 22 0 38 -5 38 -11 0 -36 381 42 451 91 15
11 32 20 39 20 19 0 40 66 40 127 0 32 7 101 15 153 8 52 15 136 15 185 0 89
0 90 30 107 37 21 48 60 26 93 -9 14 -23 25 -31 25 -18 0 -18 9 1 85 29 118
44 262 44 425 0 118 4 177 15 207 20 57 35 293 35 556 0 125 5 238 11 265 6
26 30 88 53 137 l41 90 3 170 c2 107 -2 206 -11 268 -8 53 -10 97 -6 97 13 0
143 -28 161 -35 23 -9 26 -19 38 -183 6 -79 18 -177 26 -218 8 -42 14 -97 14
-122 0 -77 -49 -294 -100 -442 -36 -105 -54 -257 -47 -400 4 -88 11 -124 44
-220 71 -206 109 -263 229 -344 100 -69 219 -92 318 -62 113 34 290 185 344
295 30 61 32 70 32 175 0 61 -5 152 -10 201 -5 50 -10 158 -10 242 -1 129 2
167 24 255 13 57 39 204 56 328 17 124 41 281 53 350 20 116 22 158 23 575 1
377 4 455 16 480 44 88 56 344 30 663 -15 193 -16 659 0 998 12 277 15 472 10
704 -1 80 1 228 5 330 14 331 9 533 -15 631 -12 48 -36 156 -53 240 -30 148
-32 164 -34 434 -2 154 -5 291 -8 305 -25 113 -48 229 -63 305 -9 50 -31 126
-49 170 -67 164 -102 302 -111 430 -4 66 -6 131 -5 145 6 81 4 89 -52 181 -31
52 -60 106 -65 119 -10 25 -112 166 -148 205 -62 65 -153 176 -235 285 -97
129 -291 360 -373 442 -51 52 -71 68 -327 263 -96 73 -181 141 -188 149 -8 9
-19 16 -25 16 -6 0 -23 6 -37 13 -21 11 -96 19 -279 29 -8 1 -33 13 -55 28
-85 58 -211 111 -341 144 -78 20 -448 20 -664 0z m-2043 -643 c21 -11 74 -29
118 -41 44 -11 125 -43 180 -70 81 -39 119 -66 200 -140 55 -51 125 -110 155
-131 238 -166 386 -307 540 -512 52 -69 104 -129 115 -133 43 -15 333 -320
450 -474 114 -149 176 -227 278 -348 26 -31 52 -69 58 -83 6 -15 27 -40 48
-57 48 -39 113 -135 141 -210 21 -54 44 -189 57 -332 6 -73 -30 -276 -69 -384
-32 -89 -98 -184 -165 -236 -173 -134 -392 -294 -473 -346 -51 -33 -118 -78
-149 -102 -126 -95 -274 -192 -371 -244 -41 -22 -87 -53 -102 -69 -14 -15 -39
-31 -55 -34 -94 -20 -119 -28 -141 -46 -14 -10 -39 -19 -56 -19 -38 0 -393
-164 -474 -218 -31 -22 -76 -49 -99 -61 -29 -14 -60 -45 -99 -99 -74 -101
-248 -272 -354 -347 -47 -33 -98 -74 -115 -92 -28 -29 -138 -109 -285 -207
-77 -51 -220 -126 -242 -126 -8 0 -43 -12 -78 -26 -63 -25 -136 -44 -335 -85
-104 -21 -143 -20 -387 11 -142 18 -362 178 -705 514 -161 158 -178 177 -214
252 -21 45 -61 115 -89 155 -120 173 -120 174 -137 255 -8 43 -21 82 -29 87
-7 4 -22 32 -33 62 -11 30 -25 63 -31 72 -5 10 -21 44 -35 77 -14 32 -44 86
-67 120 -55 81 -141 256 -163 331 -25 90 -79 240 -115 325 -18 41 -42 102 -55
135 -12 33 -36 94 -52 135 -17 41 -38 98 -48 125 -33 89 -140 289 -173 322
-20 20 -32 41 -32 58 0 40 -38 185 -59 225 -10 19 -24 59 -30 88 -6 29 -18 69
-26 88 -20 49 -19 76 5 102 25 26 61 28 96 5 24 -15 52 -16 347 -5 265 10 344
16 447 36 174 33 411 103 535 157 109 47 171 71 295 112 182 61 251 99 345
187 22 21 78 66 125 100 47 34 146 119 220 190 178 169 430 375 549 449 53 33
121 75 152 95 30 19 95 70 143 113 134 119 236 201 272 218 18 8 35 24 39 34
3 10 15 22 28 28 80 37 149 42 204 14z m-10461 -1940 l70 -23 -9 -66 c-14
-101 8 -174 120 -396 124 -245 143 -302 143 -422 0 -225 -51 -463 -113 -521
-67 -64 -104 -75 -276 -78 -180 -3 -208 -12 -277 -87 -45 -49 -117 -109 -151
-127 l-22 -11 20 56 c25 74 24 107 -5 218 -147 556 -160 903 -47 1212 46 124
59 145 114 185 49 36 68 44 162 70 87 23 175 20 271 -10z m184 -71 c58 -29
121 -95 165 -170 120 -206 122 -211 146 -365 11 -77 34 -178 49 -225 26 -77
41 -149 57 -265 7 -55 -49 -272 -90 -350 -36 -66 -140 -176 -234 -247 -110
-83 -205 -216 -279 -391 -39 -93 -106 -157 -163 -157 -60 0 -151 38 -199 84
-60 57 -125 159 -151 235 -11 36 -21 68 -21 72 0 3 45 37 100 73 55 37 116 88
137 112 59 73 75 78 263 84 157 5 168 7 216 33 58 33 103 71 127 108 51 83 89
303 90 524 1 133 -1 144 -30 221 -16 44 -65 147 -108 230 -42 82 -84 167 -92
189 -13 34 -34 225 -25 225 1 0 21 -9 42 -20z m12590 -5083 c36 -9 141 -36
234 -61 94 -25 203 -48 243 -52 l73 -7 -6 -71 c-11 -124 -64 -467 -89 -566
-30 -121 -121 -392 -176 -520 -21 -51 -34 -102 -40 -158 -4 -46 -12 -98 -18
-115 -22 -74 -33 -128 -46 -234 -9 -75 -22 -130 -39 -168 -14 -30 -26 -60 -26
-66 0 -6 -28 11 -62 38 -157 123 -276 190 -390 219 -77 19 -108 38 -108 65 0
12 -14 34 -31 50 -30 28 -31 30 -20 79 6 28 18 61 26 74 8 12 24 65 35 117 24
113 91 335 132 439 39 95 78 226 78 259 0 13 9 44 21 68 19 40 20 48 9 115
-14 83 -8 183 20 310 11 48 23 118 26 155 l7 69 41 -12 c22 -6 70 -19 106 -27z
m-10777 -1714 c18 -17 54 -39 81 -49 54 -20 153 -88 198 -138 16 -17 67 -80
114 -141 46 -60 115 -150 154 -200 38 -49 70 -92 70 -95 0 -4 -36 -32 -81 -64
-100 -72 -247 -220 -305 -308 -24 -37 -44 -71 -44 -76 0 -5 -14 -30 -32 -56
-21 -32 -56 -64 -107 -97 -41 -27 -79 -49 -84 -49 -14 0 -144 -67 -177 -92
-17 -12 -46 -47 -66 -77 -35 -56 -54 -72 -214 -173 l-74 -48 -26 24 c-40 38
-105 66 -202 87 -112 25 -119 28 -194 103 -73 74 -138 128 -224 186 -36 25
-66 45 -68 46 -10 5 23 56 58 89 85 80 101 99 107 126 3 15 13 31 22 34 9 3
49 27 88 53 56 36 77 57 94 91 27 57 84 112 205 198 54 39 118 92 140 119 23
27 72 70 110 95 38 25 105 70 149 99 90 60 119 89 136 140 17 52 46 107 93
179 30 47 42 58 44 44 2 -11 17 -34 35 -50z m6767 -1082 c0 -10 11 -61 24
-112 46 -177 50 -335 11 -424 -11 -26 -16 -55 -13 -87 l5 -47 -36 -5 c-20 -3
-67 -8 -106 -12 -38 -3 -97 -15 -130 -25 -33 -10 -111 -24 -174 -29 -124 -11
-203 -29 -284 -62 -47 -20 -71 -22 -257 -22 -175 -1 -211 -4 -245 -19 -35 -16
-47 -17 -101 -6 -55 11 -68 10 -135 -10 -41 -13 -79 -27 -84 -31 -10 -8 -151
-50 -168 -50 -5 0 0 12 11 28 38 52 90 301 102 482 5 74 9 135 10 136 0 1 29
4 65 7 36 4 87 16 113 28 39 18 74 23 207 29 158 7 161 8 232 44 63 32 85 38
185 46 147 13 174 18 228 40 26 11 97 23 170 30 130 12 223 34 300 68 57 26
70 27 70 3z"/>
</g>
</svg>
